<mxfile host="app.diagrams.net" modified="2021-12-13T08:32:32.667Z" agent="5.0 (Windows NT 10.0; Win64; x64) AppleWebKit/537.36 (KHTML, like Gecko) Chrome/96.0.4664.93 Safari/537.36" etag="jvQ3B_JuuzIlOwRcf3ZA" version="15.9.4" type="github">
  <diagram id="-tCAXN2tQgqgeDp_0vhy" name="Page-1">
    <mxGraphModel dx="1209" dy="555" grid="1" gridSize="10" guides="1" tooltips="1" connect="1" arrows="1" fold="1" page="1" pageScale="1" pageWidth="1920" pageHeight="1200" math="0" shadow="0">
      <root>
        <mxCell id="0" />
        <mxCell id="1" parent="0" />
        <mxCell id="wLSJHiVXicNakx6rYXVG-10" value="" style="edgeStyle=orthogonalEdgeStyle;rounded=0;orthogonalLoop=1;jettySize=auto;html=1;fontSize=20;" edge="1" parent="1" source="wLSJHiVXicNakx6rYXVG-1" target="wLSJHiVXicNakx6rYXVG-9">
          <mxGeometry relative="1" as="geometry" />
        </mxCell>
        <mxCell id="wLSJHiVXicNakx6rYXVG-12" value="" style="edgeStyle=orthogonalEdgeStyle;rounded=0;orthogonalLoop=1;jettySize=auto;html=1;fontSize=20;" edge="1" parent="1" source="wLSJHiVXicNakx6rYXVG-1" target="wLSJHiVXicNakx6rYXVG-11">
          <mxGeometry relative="1" as="geometry">
            <Array as="points">
              <mxPoint x="350" y="250" />
              <mxPoint x="350" y="300" />
            </Array>
          </mxGeometry>
        </mxCell>
        <mxCell id="wLSJHiVXicNakx6rYXVG-1" value="&lt;font style=&quot;font-size: 20px&quot;&gt;FF++数据集&lt;/font&gt;" style="rounded=0;whiteSpace=wrap;html=1;" vertex="1" parent="1">
          <mxGeometry x="190" y="220" width="120" height="60" as="geometry" />
        </mxCell>
        <mxCell id="wLSJHiVXicNakx6rYXVG-14" value="" style="edgeStyle=orthogonalEdgeStyle;rounded=0;orthogonalLoop=1;jettySize=auto;html=1;fontSize=20;" edge="1" parent="1" source="wLSJHiVXicNakx6rYXVG-9" target="wLSJHiVXicNakx6rYXVG-13">
          <mxGeometry relative="1" as="geometry" />
        </mxCell>
        <mxCell id="wLSJHiVXicNakx6rYXVG-9" value="&lt;font style=&quot;font-size: 20px&quot;&gt;Deepfake&lt;/font&gt;" style="rounded=0;whiteSpace=wrap;html=1;" vertex="1" parent="1">
          <mxGeometry x="390" y="160" width="120" height="60" as="geometry" />
        </mxCell>
        <mxCell id="wLSJHiVXicNakx6rYXVG-20" value="" style="edgeStyle=orthogonalEdgeStyle;rounded=0;orthogonalLoop=1;jettySize=auto;html=1;fontSize=16;" edge="1" parent="1" source="wLSJHiVXicNakx6rYXVG-11" target="wLSJHiVXicNakx6rYXVG-19">
          <mxGeometry relative="1" as="geometry" />
        </mxCell>
        <mxCell id="wLSJHiVXicNakx6rYXVG-11" value="&lt;font style=&quot;font-size: 20px&quot;&gt;FaceSwap&lt;/font&gt;" style="rounded=0;whiteSpace=wrap;html=1;" vertex="1" parent="1">
          <mxGeometry x="620" y="270" width="120" height="60" as="geometry" />
        </mxCell>
        <mxCell id="wLSJHiVXicNakx6rYXVG-18" value="" style="edgeStyle=orthogonalEdgeStyle;rounded=0;orthogonalLoop=1;jettySize=auto;html=1;fontSize=16;" edge="1" parent="1" source="wLSJHiVXicNakx6rYXVG-13" target="wLSJHiVXicNakx6rYXVG-17">
          <mxGeometry relative="1" as="geometry" />
        </mxCell>
        <mxCell id="wLSJHiVXicNakx6rYXVG-13" value="&lt;font style=&quot;font-size: 16px&quot;&gt;Deepfake&lt;br&gt;Compressed&lt;/font&gt;" style="rounded=0;whiteSpace=wrap;html=1;" vertex="1" parent="1">
          <mxGeometry x="620" y="160" width="120" height="60" as="geometry" />
        </mxCell>
        <mxCell id="wLSJHiVXicNakx6rYXVG-15" value="" style="endArrow=none;dashed=1;html=1;dashPattern=1 3;strokeWidth=2;rounded=0;fontSize=16;" edge="1" parent="1">
          <mxGeometry width="50" height="50" relative="1" as="geometry">
            <mxPoint x="770" y="365" as="sourcePoint" />
            <mxPoint x="580" y="135" as="targetPoint" />
            <Array as="points">
              <mxPoint x="770" y="135" />
            </Array>
          </mxGeometry>
        </mxCell>
        <mxCell id="wLSJHiVXicNakx6rYXVG-16" value="" style="endArrow=none;dashed=1;html=1;dashPattern=1 3;strokeWidth=2;rounded=0;fontSize=16;" edge="1" parent="1">
          <mxGeometry width="50" height="50" relative="1" as="geometry">
            <mxPoint x="770" y="365" as="sourcePoint" />
            <mxPoint x="580" y="135" as="targetPoint" />
            <Array as="points">
              <mxPoint x="580" y="365" />
            </Array>
          </mxGeometry>
        </mxCell>
        <mxCell id="wLSJHiVXicNakx6rYXVG-17" value="&lt;span style=&quot;font-size: 16px&quot;&gt;抗压缩测试&lt;/span&gt;" style="rounded=0;whiteSpace=wrap;html=1;" vertex="1" parent="1">
          <mxGeometry x="820" y="160" width="120" height="60" as="geometry" />
        </mxCell>
        <mxCell id="wLSJHiVXicNakx6rYXVG-19" value="&lt;font style=&quot;font-size: 16px&quot;&gt;跨数据集测试&lt;/font&gt;" style="rounded=0;whiteSpace=wrap;html=1;" vertex="1" parent="1">
          <mxGeometry x="820" y="270" width="120" height="60" as="geometry" />
        </mxCell>
        <mxCell id="wLSJHiVXicNakx6rYXVG-21" value="测试集" style="text;html=1;strokeColor=none;fillColor=none;align=center;verticalAlign=middle;whiteSpace=wrap;rounded=0;fontSize=16;" vertex="1" parent="1">
          <mxGeometry x="650" y="90" width="60" height="30" as="geometry" />
        </mxCell>
        <mxCell id="wLSJHiVXicNakx6rYXVG-22" value="训练集" style="text;html=1;strokeColor=none;fillColor=none;align=center;verticalAlign=middle;whiteSpace=wrap;rounded=0;fontSize=16;" vertex="1" parent="1">
          <mxGeometry x="420" y="120" width="60" height="30" as="geometry" />
        </mxCell>
        <mxCell id="wLSJHiVXicNakx6rYXVG-23" value="" style="endArrow=none;dashed=1;html=1;dashPattern=1 3;strokeWidth=2;rounded=0;fontSize=16;" edge="1" parent="1">
          <mxGeometry width="50" height="50" relative="1" as="geometry">
            <mxPoint x="545" y="230" as="sourcePoint" />
            <mxPoint x="360" y="145" as="targetPoint" />
            <Array as="points">
              <mxPoint x="545" y="145" />
            </Array>
          </mxGeometry>
        </mxCell>
        <mxCell id="wLSJHiVXicNakx6rYXVG-24" value="" style="endArrow=none;dashed=1;html=1;dashPattern=1 3;strokeWidth=2;rounded=0;fontSize=16;" edge="1" parent="1">
          <mxGeometry width="50" height="50" relative="1" as="geometry">
            <mxPoint x="540" y="230" as="sourcePoint" />
            <mxPoint x="360" y="150" as="targetPoint" />
            <Array as="points">
              <mxPoint x="360" y="230" />
            </Array>
          </mxGeometry>
        </mxCell>
      </root>
    </mxGraphModel>
  </diagram>
</mxfile>
